<svg width="68" height="48" viewBox="0 0 68 48" fill="none" xmlns="http://www.w3.org/2000/svg">
<path d="M62.1131 0.200012H5.64664C2.5297 0.203696 0.00367032 2.73868 0 5.86668V42.1333C0.00367032 45.2613 2.5297 47.7963 5.64664 47.8H62.1131C62.43 47.8013 62.7463 47.7735 63.0583 47.7173C65.7756 47.2608 67.7649 44.8983 67.7597 42.1333V5.86668C67.756 2.73854 65.23 0.203696 62.1131 0.200012ZM5.64664 45.5333C3.89124 45.5331 2.42665 44.1874 2.27221 42.4325L24.7888 27.6584L47.687 45.5333H5.64664ZM65.5011 42.1333C65.5029 43.7968 64.3023 45.2162 62.6664 45.4846C62.4838 45.5176 62.2986 45.5339 62.1131 45.5333H51.3653L36.4028 33.8475L49.7831 23.1103L65.5011 32.5748V42.1333ZM65.5011 29.9319L50.2721 20.7621C49.8672 20.5177 49.3536 20.5521 48.9846 20.8482L34.5665 32.4195L25.5375 25.3725C25.1571 25.0758 24.6311 25.0539 24.2275 25.3181L2.25866 39.7329V5.86668C2.25866 3.98889 3.77549 2.46668 5.64664 2.46668H62.1131C63.9842 2.46668 65.5011 3.98889 65.5011 5.86668V29.9319Z" fill="#E8E8E8"/>
<path d="M33.88 7C30.1377 7 27.104 10.0444 27.104 13.8C27.1077 17.554 30.1392 20.5963 33.88 20.6C37.6223 20.6 40.656 17.5556 40.656 13.8C40.656 10.0444 37.6223 7 33.88 7ZM33.88 18.3333C31.3851 18.3333 29.3627 16.3037 29.3627 13.8C29.3627 11.2963 31.3851 9.26667 33.88 9.26667C36.3748 9.26667 38.3973 11.2963 38.3973 13.8C38.3973 16.3037 36.3748 18.3333 33.88 18.3333Z" fill="#E8E8E8"/>
</svg>
