<svg width="21" height="20" viewBox="0 0 21 20" fill="none" xmlns="http://www.w3.org/2000/svg">
<g clip-path="url(#clip0)">
<path d="M12.1324 19.1666H9.6412C9.18282 19.1666 8.81081 18.7925 8.81081 18.3333V14.1666H6.73484C6.5671 14.1666 6.41514 14.065 6.3512 13.9091C6.28726 13.7533 6.32296 13.5741 6.44088 13.455L10.5928 9.28832C10.7547 9.12582 11.018 9.12582 11.1799 9.28832L15.3319 13.455C15.4506 13.5741 15.4863 13.7533 15.4215 13.9091C15.3568 14.065 15.2065 14.1666 15.0387 14.1666H12.9628V18.3333C12.9628 18.7925 12.5907 19.1666 12.1324 19.1666ZM7.73712 13.3333H9.226C9.45519 13.3333 9.6412 13.52 9.6412 13.75V18.3333H12.1324V13.75C12.1324 13.52 12.3184 13.3333 12.5476 13.3333H14.0364L10.8868 10.1725L7.73712 13.3333Z" fill="#A6C94A"/>
<path d="M4.65994 14.1417C4.64417 14.1417 4.62922 14.1408 4.61261 14.1392C2.50924 13.905 0.922363 12.125 0.922363 10C0.922363 7.79833 2.63213 5.99084 4.78865 5.84334C5.36328 2.96334 7.92503 0.833344 10.887 0.833344C13.2129 0.833344 15.3553 2.14834 16.4116 4.20334C18.921 4.46751 20.8517 6.60167 20.8517 9.16667C20.8517 11.4 19.3603 13.375 17.2262 13.9683C17.0037 14.0292 16.7761 13.8992 16.7155 13.6775C16.6541 13.4558 16.7836 13.2258 17.0045 13.165C18.7807 12.6717 20.0213 11.0267 20.0213 9.16667C20.0213 6.96084 18.3082 5.1375 16.121 5.01584C15.9673 5.0075 15.832 4.915 15.7672 4.77584C14.8887 2.88751 12.9738 1.66668 10.887 1.66668C8.21733 1.66668 5.92379 3.66251 5.55178 6.30834C5.52272 6.51334 5.3475 6.66667 5.14074 6.66667C3.24247 6.66667 1.75275 8.16167 1.75275 10C1.75275 11.7 3.02159 13.1233 4.70561 13.3108C4.93314 13.3367 5.09756 13.5425 5.07182 13.7708C5.04856 13.9842 4.86837 14.1417 4.65994 14.1417Z" fill="#A6C94A"/>
</g>
<defs>
<clipPath id="clip0">
<rect width="19.9293" height="20" fill="white" transform="translate(0.922363)"/>
</clipPath>
</defs>
</svg>
