<svg width="61" height="50" viewBox="0 0 61 50" fill="none" xmlns="http://www.w3.org/2000/svg">
<path d="M50.8333 45.8333H0V4.16666H61V45.8333H50.8333ZM8.13333 5.83333H2.03333V10.8333H8.13333V5.83333ZM8.13333 12.5H2.03333V17.5H8.13333V12.5ZM8.13333 19.1667H2.03333V24.1667H8.13333V19.1667ZM8.13333 25.8333H2.03333V30.8333H8.13333V25.8333ZM8.13333 32.5H2.03333V37.5H8.13333V32.5ZM8.13333 39.1667H2.03333V44.1667H8.13333V39.1667ZM50.8333 5.83333H10.1667V44.1667H50.8333V5.83333ZM58.9667 5.83333H52.8667V10.8333H58.9667V5.83333ZM58.9667 12.5H52.8667V17.5H58.9667V12.5ZM58.9667 19.1667H52.8667V24.1667H58.9667V19.1667ZM58.9667 25.8333H52.8667V30.8333H58.9667V25.8333ZM58.9667 32.5H52.8667V37.5H58.9667V32.5ZM58.9667 39.1667H52.8667V44.1667H58.9667V39.1667Z" fill="#E8E8E8"/>
<path d="M38.5026 25.4163C38.4126 25.5453 38.2823 25.6521 38.1251 25.7258L23.8917 32.3925C23.4055 32.6226 22.7837 32.486 22.5029 32.0875C22.4128 31.9596 22.3658 31.8144 22.3667 31.6667V18.3333C22.3671 18.0359 22.5608 17.7612 22.875 17.6125C23.1896 17.4636 23.5772 17.4636 23.8917 17.6125L38.1251 24.2792C38.6124 24.5077 38.7814 25.0168 38.5026 25.4163ZM24.4 19.77V30.23L35.5671 25L24.4 19.77Z" fill="#E8E8E8"/>
</svg>
